<mxfile host="app.diagrams.net" modified="2021-01-12T10:17:48.719Z" agent="5.0 (Windows NT 10.0; Win64; x64) AppleWebKit/537.36 (KHTML, like Gecko) Chrome/87.0.4280.141 Safari/537.36" etag="kif_O4nKyoZvG3NnQ49a" version="14.1.9" type="github">
  <diagram id="4d29W5WxIk8nkYb60he4" name="Page-1">
    <mxGraphModel dx="780" dy="1154" grid="1" gridSize="10" guides="1" tooltips="1" connect="1" arrows="1" fold="1" page="1" pageScale="1" pageWidth="827" pageHeight="1169" math="0" shadow="0">
      <root>
        <mxCell id="0" />
        <mxCell id="1" parent="0" />
        <mxCell id="GxyA5iGJCojV2aHmeg0h-3" value="&lt;div&gt;No&lt;/div&gt;&lt;div&gt;&lt;br&gt;&lt;/div&gt;" style="edgeStyle=orthogonalEdgeStyle;rounded=0;orthogonalLoop=1;jettySize=auto;html=1;" parent="1" source="WxqafuSX7poHOOpFGCyM-2" target="GxyA5iGJCojV2aHmeg0h-2" edge="1">
          <mxGeometry relative="1" as="geometry" />
        </mxCell>
        <mxCell id="Qxv_XPzBXx_ZCvMV-COk-9" value="&lt;div&gt;yes&lt;/div&gt;&lt;div&gt;&lt;br&gt;&lt;/div&gt;" style="edgeStyle=orthogonalEdgeStyle;rounded=0;orthogonalLoop=1;jettySize=auto;html=1;entryX=0.5;entryY=0;entryDx=0;entryDy=0;" parent="1" source="WxqafuSX7poHOOpFGCyM-2" target="Qxv_XPzBXx_ZCvMV-COk-6" edge="1">
          <mxGeometry relative="1" as="geometry" />
        </mxCell>
        <mxCell id="WxqafuSX7poHOOpFGCyM-2" value="&lt;div&gt;yes / no&lt;/div&gt;&lt;div&gt;&lt;br&gt;&lt;/div&gt;" style="rhombus;whiteSpace=wrap;html=1;fillColor=#007FFF;fontStyle=1" parent="1" vertex="1">
          <mxGeometry x="360" y="160" width="80" height="90" as="geometry" />
        </mxCell>
        <mxCell id="Qxv_XPzBXx_ZCvMV-COk-3" style="edgeStyle=orthogonalEdgeStyle;rounded=0;orthogonalLoop=1;jettySize=auto;html=1;entryX=0.5;entryY=0;entryDx=0;entryDy=0;" parent="1" source="GxyA5iGJCojV2aHmeg0h-2" target="Qxv_XPzBXx_ZCvMV-COk-1" edge="1">
          <mxGeometry relative="1" as="geometry" />
        </mxCell>
        <mxCell id="GxyA5iGJCojV2aHmeg0h-2" value="&lt;div&gt;End&lt;/div&gt;" style="shape=parallelogram;perimeter=parallelogramPerimeter;whiteSpace=wrap;html=1;fixedSize=1;fillColor=#FFFF00;fontStyle=1" parent="1" vertex="1">
          <mxGeometry x="110" y="175" width="120" height="60" as="geometry" />
        </mxCell>
        <mxCell id="Qxv_XPzBXx_ZCvMV-COk-1" value="&lt;div&gt;Finish&lt;/div&gt;&lt;div&gt;&lt;br&gt;&lt;/div&gt;" style="rounded=0;whiteSpace=wrap;html=1;fillColor=#FFFF00;fontStyle=1" parent="1" vertex="1">
          <mxGeometry x="110" y="280" width="120" height="60" as="geometry" />
        </mxCell>
        <mxCell id="Qxv_XPzBXx_ZCvMV-COk-5" style="edgeStyle=orthogonalEdgeStyle;rounded=0;orthogonalLoop=1;jettySize=auto;html=1;entryX=0.5;entryY=0;entryDx=0;entryDy=0;" parent="1" source="Qxv_XPzBXx_ZCvMV-COk-4" target="WxqafuSX7poHOOpFGCyM-2" edge="1">
          <mxGeometry relative="1" as="geometry" />
        </mxCell>
        <mxCell id="Qxv_XPzBXx_ZCvMV-COk-4" value="&lt;div&gt;Do You wan&#39;t to play game?&lt;/div&gt;&lt;div&gt;&lt;br&gt;&lt;/div&gt;" style="rounded=1;whiteSpace=wrap;html=1;fillColor=#007FFF;fontStyle=1" parent="1" vertex="1">
          <mxGeometry x="340" y="50" width="120" height="60" as="geometry" />
        </mxCell>
        <mxCell id="Qxv_XPzBXx_ZCvMV-COk-8" style="edgeStyle=orthogonalEdgeStyle;rounded=0;orthogonalLoop=1;jettySize=auto;html=1;" parent="1" source="Qxv_XPzBXx_ZCvMV-COk-6" edge="1">
          <mxGeometry relative="1" as="geometry">
            <mxPoint x="400" y="420" as="targetPoint" />
          </mxGeometry>
        </mxCell>
        <mxCell id="Qxv_XPzBXx_ZCvMV-COk-6" value="&lt;div&gt;Start Game&lt;/div&gt;&lt;div&gt;&lt;br&gt;&lt;/div&gt;" style="rounded=1;whiteSpace=wrap;html=1;fillColor=#007FFF;fontStyle=1" parent="1" vertex="1">
          <mxGeometry x="340" y="330" width="120" height="30" as="geometry" />
        </mxCell>
        <mxCell id="xVhMD_2vwnMEOMpWQLeE-1" value="Door 1&lt;br&gt;Question 1" style="rounded=1;whiteSpace=wrap;html=1;fillColor=#007FFF;fontStyle=1" parent="1" vertex="1">
          <mxGeometry x="340" y="420" width="120" height="60" as="geometry" />
        </mxCell>
        <mxCell id="xVhMD_2vwnMEOMpWQLeE-2" value="correct" style="endArrow=classic;html=1;exitX=0.5;exitY=1;exitDx=0;exitDy=0;" parent="1" source="xVhMD_2vwnMEOMpWQLeE-1" edge="1">
          <mxGeometry width="50" height="50" relative="1" as="geometry">
            <mxPoint x="370" y="600" as="sourcePoint" />
            <mxPoint x="400" y="550" as="targetPoint" />
          </mxGeometry>
        </mxCell>
        <mxCell id="xVhMD_2vwnMEOMpWQLeE-5" value="global health -= 1" style="rounded=1;whiteSpace=wrap;html=1;fillColor=#FF3333;fontStyle=1" parent="1" vertex="1">
          <mxGeometry x="540" y="420" width="120" height="60" as="geometry" />
        </mxCell>
        <mxCell id="xVhMD_2vwnMEOMpWQLeE-6" value="wrong" style="endArrow=classic;html=1;" parent="1" edge="1">
          <mxGeometry width="50" height="50" relative="1" as="geometry">
            <mxPoint x="460" y="470" as="sourcePoint" />
            <mxPoint x="540" y="470" as="targetPoint" />
          </mxGeometry>
        </mxCell>
        <mxCell id="xVhMD_2vwnMEOMpWQLeE-7" value="" style="endArrow=classic;html=1;exitX=0;exitY=0.25;exitDx=0;exitDy=0;entryX=1;entryY=0.25;entryDx=0;entryDy=0;" parent="1" edge="1">
          <mxGeometry width="50" height="50" relative="1" as="geometry">
            <mxPoint x="540" y="433" as="sourcePoint" />
            <mxPoint x="460" y="433" as="targetPoint" />
          </mxGeometry>
        </mxCell>
        <mxCell id="xVhMD_2vwnMEOMpWQLeE-8" value="Door 2&lt;br&gt;Question 2" style="rounded=1;whiteSpace=wrap;html=1;fillColor=#007FFF;fontStyle=1" parent="1" vertex="1">
          <mxGeometry x="340" y="550" width="120" height="60" as="geometry" />
        </mxCell>
        <mxCell id="xVhMD_2vwnMEOMpWQLeE-9" value="global health -= 1" style="rounded=1;whiteSpace=wrap;html=1;fillColor=#FF3333;fontStyle=1" parent="1" vertex="1">
          <mxGeometry x="540" y="550" width="120" height="60" as="geometry" />
        </mxCell>
        <mxCell id="xVhMD_2vwnMEOMpWQLeE-10" value="wrong" style="endArrow=classic;html=1;" parent="1" edge="1">
          <mxGeometry width="50" height="50" relative="1" as="geometry">
            <mxPoint x="460" y="600" as="sourcePoint" />
            <mxPoint x="540" y="600" as="targetPoint" />
          </mxGeometry>
        </mxCell>
        <mxCell id="xVhMD_2vwnMEOMpWQLeE-11" value="" style="endArrow=classic;html=1;exitX=0;exitY=0.25;exitDx=0;exitDy=0;entryX=1;entryY=0.25;entryDx=0;entryDy=0;" parent="1" edge="1">
          <mxGeometry width="50" height="50" relative="1" as="geometry">
            <mxPoint x="540" y="563" as="sourcePoint" />
            <mxPoint x="460" y="563" as="targetPoint" />
          </mxGeometry>
        </mxCell>
        <mxCell id="xVhMD_2vwnMEOMpWQLeE-12" value="correct" style="endArrow=classic;html=1;exitX=0.5;exitY=1;exitDx=0;exitDy=0;" parent="1" edge="1">
          <mxGeometry width="50" height="50" relative="1" as="geometry">
            <mxPoint x="400" y="610" as="sourcePoint" />
            <mxPoint x="400" y="680" as="targetPoint" />
          </mxGeometry>
        </mxCell>
        <mxCell id="xVhMD_2vwnMEOMpWQLeE-13" value="Door ...&lt;br&gt;Question ..." style="rounded=1;whiteSpace=wrap;html=1;fillColor=#007FFF;fontStyle=1" parent="1" vertex="1">
          <mxGeometry x="340" y="680" width="120" height="60" as="geometry" />
        </mxCell>
        <mxCell id="xVhMD_2vwnMEOMpWQLeE-26" value="" style="edgeStyle=orthogonalEdgeStyle;rounded=0;orthogonalLoop=1;jettySize=auto;html=1;" parent="1" source="xVhMD_2vwnMEOMpWQLeE-14" target="xVhMD_2vwnMEOMpWQLeE-25" edge="1">
          <mxGeometry relative="1" as="geometry" />
        </mxCell>
        <mxCell id="xVhMD_2vwnMEOMpWQLeE-14" value="global health -= 1" style="rounded=1;whiteSpace=wrap;html=1;fillColor=#FF3333;fontStyle=1" parent="1" vertex="1">
          <mxGeometry x="540" y="680" width="120" height="60" as="geometry" />
        </mxCell>
        <mxCell id="xVhMD_2vwnMEOMpWQLeE-15" value="wrong" style="endArrow=classic;html=1;" parent="1" edge="1">
          <mxGeometry width="50" height="50" relative="1" as="geometry">
            <mxPoint x="460" y="730" as="sourcePoint" />
            <mxPoint x="540" y="730" as="targetPoint" />
          </mxGeometry>
        </mxCell>
        <mxCell id="xVhMD_2vwnMEOMpWQLeE-16" value="" style="endArrow=classic;html=1;exitX=0;exitY=0.25;exitDx=0;exitDy=0;entryX=1;entryY=0.25;entryDx=0;entryDy=0;" parent="1" edge="1">
          <mxGeometry width="50" height="50" relative="1" as="geometry">
            <mxPoint x="540" y="693" as="sourcePoint" />
            <mxPoint x="460" y="693" as="targetPoint" />
          </mxGeometry>
        </mxCell>
        <mxCell id="xVhMD_2vwnMEOMpWQLeE-17" value="" style="endArrow=classic;html=1;entryX=-0.025;entryY=0.383;entryDx=0;entryDy=0;entryPerimeter=0;" parent="1" target="xVhMD_2vwnMEOMpWQLeE-23" edge="1">
          <mxGeometry width="50" height="50" relative="1" as="geometry">
            <mxPoint x="460" y="344.5" as="sourcePoint" />
            <mxPoint x="530" y="344.5" as="targetPoint" />
          </mxGeometry>
        </mxCell>
        <mxCell id="xVhMD_2vwnMEOMpWQLeE-23" value="global health/distance from ghosts = 10" style="rounded=1;whiteSpace=wrap;html=1;fillColor=#FF3333;fontStyle=1" parent="1" vertex="1">
          <mxGeometry x="540" y="320" width="120" height="60" as="geometry" />
        </mxCell>
        <mxCell id="xVhMD_2vwnMEOMpWQLeE-25" value="if global health == 0&lt;br&gt;print(&quot;GAME OVER&quot;)" style="rounded=1;whiteSpace=wrap;html=1;fillColor=#FFFF00;fontStyle=1" parent="1" vertex="1">
          <mxGeometry x="740" y="680" width="120" height="60" as="geometry" />
        </mxCell>
        <mxCell id="xVhMD_2vwnMEOMpWQLeE-27" value="correct" style="endArrow=classic;html=1;exitX=0.5;exitY=1;exitDx=0;exitDy=0;" parent="1" edge="1">
          <mxGeometry width="50" height="50" relative="1" as="geometry">
            <mxPoint x="400" y="820" as="sourcePoint" />
            <mxPoint x="400" y="890" as="targetPoint" />
          </mxGeometry>
        </mxCell>
        <mxCell id="xVhMD_2vwnMEOMpWQLeE-28" value="Door 10&lt;br&gt;Question 10" style="rounded=1;whiteSpace=wrap;html=1;fillColor=#007FFF;fontStyle=1" parent="1" vertex="1">
          <mxGeometry x="340" y="890" width="120" height="60" as="geometry" />
        </mxCell>
        <mxCell id="xVhMD_2vwnMEOMpWQLeE-29" value="" style="edgeStyle=orthogonalEdgeStyle;rounded=0;orthogonalLoop=1;jettySize=auto;html=1;" parent="1" source="xVhMD_2vwnMEOMpWQLeE-30" edge="1">
          <mxGeometry relative="1" as="geometry">
            <mxPoint x="740" y="920" as="targetPoint" />
          </mxGeometry>
        </mxCell>
        <mxCell id="xVhMD_2vwnMEOMpWQLeE-30" value="global health -= 1" style="rounded=1;whiteSpace=wrap;html=1;fillColor=#FF3333;fontStyle=1" parent="1" vertex="1">
          <mxGeometry x="540" y="890" width="120" height="60" as="geometry" />
        </mxCell>
        <mxCell id="xVhMD_2vwnMEOMpWQLeE-31" value="wrong" style="endArrow=classic;html=1;" parent="1" edge="1">
          <mxGeometry width="50" height="50" relative="1" as="geometry">
            <mxPoint x="460" y="940" as="sourcePoint" />
            <mxPoint x="540" y="940" as="targetPoint" />
          </mxGeometry>
        </mxCell>
        <mxCell id="xVhMD_2vwnMEOMpWQLeE-32" value="" style="endArrow=classic;html=1;exitX=0;exitY=0.25;exitDx=0;exitDy=0;entryX=1;entryY=0.25;entryDx=0;entryDy=0;" parent="1" edge="1">
          <mxGeometry width="50" height="50" relative="1" as="geometry">
            <mxPoint x="540" y="903" as="sourcePoint" />
            <mxPoint x="460" y="903" as="targetPoint" />
          </mxGeometry>
        </mxCell>
        <mxCell id="xVhMD_2vwnMEOMpWQLeE-33" value="" style="endArrow=none;dashed=1;html=1;" parent="1" edge="1">
          <mxGeometry width="50" height="50" relative="1" as="geometry">
            <mxPoint x="400" y="830" as="sourcePoint" />
            <mxPoint x="400" y="740" as="targetPoint" />
          </mxGeometry>
        </mxCell>
        <mxCell id="xVhMD_2vwnMEOMpWQLeE-34" value="correct" style="endArrow=classic;html=1;exitX=0.5;exitY=1;exitDx=0;exitDy=0;" parent="1" edge="1">
          <mxGeometry width="50" height="50" relative="1" as="geometry">
            <mxPoint x="399.5" y="950" as="sourcePoint" />
            <mxPoint x="399.5" y="1020" as="targetPoint" />
          </mxGeometry>
        </mxCell>
        <mxCell id="xVhMD_2vwnMEOMpWQLeE-35" value="&lt;div&gt;FINISH - YOU HAVE WON THE GAME&lt;/div&gt;" style="rounded=0;whiteSpace=wrap;html=1;labelBackgroundColor=#00FF00;fillColor=#00FF00;fontStyle=1" parent="1" vertex="1">
          <mxGeometry x="340" y="1020" width="120" height="60" as="geometry" />
        </mxCell>
        <mxCell id="xVhMD_2vwnMEOMpWQLeE-36" value="if global health == 0&lt;br&gt;print(&quot;GAME OVER&quot;)" style="rounded=1;whiteSpace=wrap;html=1;fillColor=#FFFF00;fontStyle=1" parent="1" vertex="1">
          <mxGeometry x="740" y="890" width="120" height="60" as="geometry" />
        </mxCell>
      </root>
    </mxGraphModel>
  </diagram>
</mxfile>
